<svg xmlns="http://www.w3.org/2000/svg" aria-hidden="true" style="position:absolute;width:0;height:0;overflow:hidden">
  <defs>
    <symbol id="icon-close-black" viewBox="0 0 32 32">
      <path d="M32 3.223 28.777 0 16 12.777 3.223 0 0 3.223 12.777 16 0 28.777 3.223 32 16 19.223 28.777 32 32 28.777 19.223 16 32 3.223z"/>
    </symbol>
    <symbol id="icon-astronaut" viewBox="0 0 32 32">
      <path fill="#4d5ae5" d="M31.974 4.524a.534.534 0 0 0-.43-.363l-1.91-.278-.855-1.731c-.179-.365-.777-.365-.956 0l-.855 1.731-1.91.278a.535.535 0 0 0-.296.91l1.383 1.348-.326 1.903c-.034.2.048.402.212.522a.53.53 0 0 0 .562.04l1.709-.899 1.709.899a.536.536 0 0 0 .775-.563l-.326-1.903 1.383-1.348a.536.536 0 0 0 .135-.547zm-2.463 1.327a.534.534 0 0 0-.153.472l.191 1.114-1-.526a.533.533 0 0 0-.498 0l-1.001.526.191-1.114a.534.534 0 0 0-.153-.472l-.81-.789 1.119-.163a.532.532 0 0 0 .402-.292l.5-1.013.5 1.013a.535.535 0 0 0 .402.292l1.119.163-.809.789zm-3.378 14.671h-1.067v1.067h1.067v-1.067zm0 2.134h-1.067v1.067h1.067v-1.067zm1.067-1.067h-1.067v1.067H27.2v-1.067zm-2.133 0H24v1.067h1.067v-1.067zm-2.667 4.8h-1.067v1.067H22.4v-1.067zm0 2.133h-1.067v1.067H22.4v-1.067zm1.067-1.066H22.4v1.067h1.067v-1.067zm-2.134 0h-1.067v1.067h1.067v-1.067zM16 24.256h-1.067v1.067H16v-1.067zm0 2.133h-1.067v1.067H16v-1.067zm1.067-1.067H16v1.067h1.067v-1.067zm-2.134 0h-1.067v1.067h1.067v-1.067zm-9.067-19.2H4.799v1.067h1.067V6.122zm0 2.133H4.799v1.067h1.067V8.255z" style="fill:var(--color1, #4d5ae5)"/>
      <path fill="#4d5ae5" d="M6.933 7.189H5.866v1.067h1.067V7.189zm-2.133 0H3.733v1.067H4.8V7.189z" style="fill:var(--color1, #4d5ae5)"/>
      <path fill="#2e2f42" d="M24.715 14.159a1.775 1.775 0 0 0-1.188-.705 1.778 1.778 0 0 0-1.34.352l-1.252.96-1.898 1.417-1.358-.541c2.421-1.086 4.114-3.508 4.114-6.32 0-3.823-3.123-6.933-6.961-6.933s-6.961 3.11-6.961 6.933a6.86 6.86 0 0 0 1.12 3.758l-2.764-.024h-.005c-.009 0-.015.004-.023.005a.515.515 0 0 0-.155.031l-.038.013c-.006.003-.013.003-.019.006l-3.233 1.596-.001.001-1.893.911a.397.397 0 0 0-.063.035 1.779 1.779 0 0 0-.598 2.295c.22.429.595.745 1.056.889a1.776 1.776 0 0 0 1.378-.128l1.388-.738 2.264-1.169 1.357-.008L2.2 22.211l-.002.001-1.339 1.333c-.316.315-.49.732-.49 1.178s.174.863.49 1.179c.325.323.752.485 1.179.485s.854-.162 1.18-.485l1.314-1.309 1.741-1.3.901.897-1.762 1.754-.002.001-1.339 1.333c-.316.315-.49.732-.49 1.178s.174.863.49 1.179c.325.323.753.485 1.18.485s.855-.162 1.18-.485l3.482-3.467.001-.002 1.01-1-.004-.004c.006-.006.015-.009.022-.015l5.166-5.658 3.471.494a.52.52 0 0 0 .262-.033c.018-.006.033-.015.05-.023.019-.01.039-.015.058-.027l3.213-2.133c.012-.008.018-.021.029-.029.013-.01.029-.014.041-.026l1.271-1.191c.662-.62.753-1.635.212-2.362zM2.13 17.77a.714.714 0 0 1-.558.052.717.717 0 0 1-.213-1.26l1.314-.632.449 1.313-.992.527zm3.497-1.828-1.548.8-.439-1.283 2.027-1.001-.04 1.484zm15.1-6.62a5.79 5.79 0 0 1-.599 2.559l-4.181-1.899a1.863 1.863 0 0 0-.788-1.388l1.464-4.86c2.378.756 4.105 2.974 4.105 5.588zm-11.789 0c0-3.235 2.644-5.867 5.894-5.867.253 0 .5.021.745.052l-1.432 4.754c-.019-.001-.037-.006-.057-.006-1.033 0-1.873.837-1.873 1.867s.84 1.867 1.873 1.867c.694 0 1.294-.383 1.618-.945l3.862 1.755a5.894 5.894 0 0 1-4.737 2.39c-3.25 0-5.894-2.632-5.894-5.867zm5.956.8c0 .441-.362.8-.806.8s-.806-.359-.806-.8c0-.441.362-.8.806-.8s.806.359.806.8zM2.465 25.146a.608.608 0 0 1-.854.001.592.592 0 0 1 0-.844l.962-.958.851.848-.959.955zm3.214 3.734a.608.608 0 0 1-.855.001.592.592 0 0 1 0-.844l.963-.959.852.848-.96.955zm3.481-3.469-.002.001-1.765 1.76-.852-.848 1.763-1.755.002-.001c.04-.04.065-.088.09-.135.007-.014.02-.026.026-.04.017-.041.019-.085.026-.129.003-.025.014-.047.014-.073 0-.036-.013-.07-.02-.106-.006-.032-.006-.065-.019-.095a.55.55 0 0 0-.091-.138c-.01-.012-.014-.027-.025-.038h-.001l-.001-.002-1.607-1.6c-.017-.017-.039-.024-.058-.038a.507.507 0 0 0-.087-.058.515.515 0 0 0-.093-.033.507.507 0 0 0-.103-.02.5.5 0 0 0-.095.005.53.53 0 0 0-.104.02.477.477 0 0 0-.094.045c-.02.011-.042.015-.061.029L4.23 23.486l-.901-.897 2.399-2.386 4.361 4.289-.928.919zm6.819-7.017c-.015-.002-.03.004-.045.003a.556.556 0 0 0-.3.075.492.492 0 0 0-.083.061c-.013.011-.028.017-.04.029l-4.698 5.146-4.328-4.257 2.833-2.818a.534.534 0 0 0-.379-.911v-.001l-2.219.013.028-1.607 3.104.027a6.947 6.947 0 0 0 4.981 2.101c.437 0 .864-.045 1.279-.123.04.032.079.065.13.085l2.41.96.152.758.178.885-3.003-.427zm4.041.178-.313-1.558 1.446-1.08.947 1.257-2.08 1.381zm3.754-2.831-.838.785-.931-1.236.831-.637a.735.735 0 0 1 .543-.143.718.718 0 0 1 .48.284.713.713 0 0 1-.085.947z" style="fill:var(--color2, #2e2f42)"/>
      <path fill="#2e2f42" d="m13.602 18.544-2.143-2.133a.534.534 0 0 0-.753 0l-2.142 2.133a.537.537 0 0 0 0 .756l2.142 2.133a.536.536 0 0 0 .753 0l2.143-2.133a.535.535 0 0 0 0-.756zm-2.519 1.759-1.387-1.381 1.387-1.381 1.387 1.381-1.387 1.381zm6.081-15.232-.258 1.036c.071.018 1.738.452 1.738 2.149h1.067c0-2.017-1.666-2.965-2.547-3.185zm2.547 4.251h-1.067v1.067h1.067V9.322z" style="fill:var(--color2, #2e2f42)"/>
    </symbol>
    <symbol id="icon-diagram" viewBox="0 0 32 32">
      <path fill="#4d5ae5" d="M14.926 14.945h1.066v4.798h-1.066v-4.797zm4.264 2.132h1.066v2.665H19.19v-2.665zm-8.529 1.599h1.066v1.066h-1.066v-1.066zm-3.198-.533h1.066v1.599H7.463v-1.599z" style="fill:var(--color1, #4d5ae5)"/>
      <path fill="#2e2f42" d="M1.599 28.271h25.587a1.6 1.6 0 0 0 1.599-1.599V24.54a1.6 1.6 0 0 0-1.599-1.599h-.533V9.648l3.028-2.868a1.608 1.608 0 1 0-.746-.763L26.654 8.18V6.95a1.6 1.6 0 0 0-1.599-1.599H3.733A1.6 1.6 0 0 0 2.134 6.95v15.992h-.533a1.6 1.6 0 0 0-1.599 1.599v2.132a1.6 1.6 0 0 0 1.599 1.599zM30.384 4.817a.533.533 0 1 1 0 1.067.533.533 0 0 1 0-1.067zM3.198 6.949c0-.294.239-.533.533-.533h21.322c.294 0 .533.239.533.533v2.239l-1.066 1.013V8.015a.533.533 0 0 0-.533-.533H4.797a.533.533 0 0 0-.533.533v13.326c0 .294.239.533.533.533h19.19a.533.533 0 0 0 .533-.533v-9.674l1.066-1.01v12.284H3.198V6.949zm4.798 6.93a1.598 1.598 0 1 0 1.107 2.749l1.853.93a.532.532 0 0 0 .636-.123l3.939-4.431 3.872 2.901a.533.533 0 0 0 .686-.039l3.365-3.188v8.131H5.33V8.549h18.124v2.66l-3.771 3.572-3.904-2.927a.533.533 0 0 0-.718.072l-3.993 4.493-1.493-.746c.011-.064.018-.129.02-.193a1.6 1.6 0 0 0-1.599-1.599zm.533 1.599a.533.533 0 1 1-1.067 0 .533.533 0 0 1 1.067 0zm3.198 8.529h5.331v.533a.533.533 0 0 1-.533.533h-4.264a.533.533 0 0 1-.533-.533v-.533zm-10.661.533c0-.294.239-.533.533-.533h9.062v.533a1.6 1.6 0 0 0 1.599 1.599h4.264a1.6 1.6 0 0 0 1.599-1.599v-.533h9.062c.294 0 .533.239.533.533v2.132a.533.533 0 0 1-.533.533H1.598a.533.533 0 0 1-.533-.533V24.54z" style="fill:var(--color2, #2e2f42)"/>
    </symbol>
    <symbol id="icon-clock" viewBox="0 0 32 32">
      <path fill="#2e2f42" d="M31.305 15.301C31.303 6.849 24.45-.002 15.997 0S.694 6.855.696 15.308a15.304 15.304 0 0 0 10.649 14.576.662.662 0 0 0 .529-.065.637.637 0 0 0 .283-.356l3.865-12.25a1.912 1.912 0 1 0-.84-3.635l-5.106-5.107a.637.637 0 0 0-.902.902l5.103 5.109a1.876 1.876 0 0 0 .536 2.309L11.13 28.464C3.852 25.783.126 17.71 2.807 10.432S13.561-.572 20.839 2.109s11.004 10.754 8.323 18.032a14.042 14.042 0 0 1-7.462 7.973l-.398-1.874a.637.637 0 0 0-1.049-.344l-3.837 3.426a.637.637 0 0 0 .231 1.084l4.899 1.564a.638.638 0 0 0 .819-.74l-.391-1.839a15.255 15.255 0 0 0 9.329-14.089zM16 14.664a.638.638 0 1 1 0 1.277.638.638 0 0 1 0-1.277zm2.1 14.864 2.184-1.948.603 2.84-2.787-.892z" style="fill:var(--color2, #2e2f42)"/>
      <path fill="#4d5ae5" d="M15.362 3.185V4.46a.638.638 0 1 0 1.276 0V3.185a.638.638 0 0 0-1.276 0zM3.884 14.664a.638.638 0 0 0 0 1.276h1.275a.638.638 0 1 0 0-1.276H3.884zm24.232 1.275a.638.638 0 1 0 0-1.276h-1.275a.638.638 0 0 0 0 1.276h1.275z" style="fill:var(--color1, #4d5ae5)"/>
    </symbol>
    <symbol id="icon-antenna" viewBox="0 0 32 32">
      <path fill="#2e2f42" d="m30.773 22.098-8.443-8.505.937-4.615c.242.094.499.144.758.146h.006a2.159 2.159 0 1 0-2.008-1.435l-4.96.605L8.972.161a.534.534 0 0 0-.377-.16.532.532 0 0 0-.373.155L6.709 1.66a.534.534 0 0 0 0 .754l.814.826a14.943 14.943 0 0 0 2.519 17.663.513.513 0 0 0 .146.098c-.034.18-.051.364-.052.547v6.187h-6.4a2.67 2.67 0 0 0-2.667 2.667v1.067c0 .295.239.533.533.533h24.533a.533.533 0 0 0 .533-.533v-1.067a2.67 2.67 0 0 0-2.667-2.667h-6.4v-2.742a15.09 15.09 0 0 0 3.049.32 14.854 14.854 0 0 0 7.04-1.783l.818.823a.534.534 0 0 0 .377.16.532.532 0 0 0 .373-.155l1.513-1.504a.534.534 0 0 0 0-.754zM23.28 6.233a1.067 1.067 0 1 1 .753 1.822h-.003a1.067 1.067 0 0 1-.747-1.823h-.002zm-1.256 3.505-.598 2.946-1.175-1.182 1.774-1.763zm-.605-.902-1.92 1.909-1.485-1.493 3.405-.415zM24.004 28.8a1.6 1.6 0 0 1 1.6 1.6v.533H2.137V30.4a1.6 1.6 0 0 1 1.6-1.6h20.267zm-7.467-2.133v1.067h-5.333v-1.067h5.333zM11.204 25.6v-4.053c0-1.294 1.196-2.347 2.667-2.347s2.667 1.053 2.667 2.347V25.6h-5.333zm6.4-1.696v-2.357c0-1.882-1.675-3.413-3.733-3.413a3.8 3.8 0 0 0-3.281 1.786A13.87 13.87 0 0 1 8.311 4.033l18.602 18.708a13.818 13.818 0 0 1-9.309 1.163zm11.289-.684L7.836 2.039l.755-.752 7.935 7.98c.004 0 .006.007.01.01l13.115 13.191-.757.752z" style="fill:var(--color2, #2e2f42)"/>
      <path fill="#4d5ae5" d="M13.876 20.267h-.005a1.6 1.6 0 1 0-.004 3.2h.005a1.6 1.6 0 1 0 .004-3.2zm.373 1.978a.534.534 0 0 1-.752-.756.534.534 0 0 1 .373-.155.534.534 0 0 1 .374.911h.005z" style="fill:var(--color1, #4d5ae5)"/>
    </symbol>
    <symbol id="icon-Logo-5" viewBox="0 0 59 32">
      <path d="M30.053 15.163a1.866 1.866 0 0 1-.383-1.26v-1.826c0-.56.127-.985.381-1.276s.69-.436 1.309-.435c.581 0 .994.124 1.238.372.266.316.396.703.366 1.092v.429h-1.04v-.435a2.16 2.16 0 0 0-.03-.425.413.413 0 0 0-.149-.253.6.6 0 0 0-.377-.098.639.639 0 0 0-.396.104.483.483 0 0 0-.172.279c-.03.149-.044.3-.041.451v2.216c-.016.214.029.428.133.622.052.066.124.118.207.151s.177.045.268.035a.573.573 0 0 0 .368-.1.446.446 0 0 0 .155-.269c.024-.147.035-.296.032-.444v-.45h1.04v.411a1.67 1.67 0 0 1-.36 1.148c-.239.271-.646.407-1.244.407s-1.051-.145-1.307-.446zm4.33.019c-.263-.284-.394-.698-.394-1.247v-1.921c0-.542.131-.953.394-1.232s.702-.417 1.318-.416c.611 0 1.048.139 1.311.416.263.279.396.689.396 1.232v1.921c0 .542-.133.959-.4 1.245s-.702.429-1.307.429-1.053-.145-1.318-.427zm1.802-.461c.094-.178.137-.373.125-.568v-2.352a1.04 1.04 0 0 0-.123-.557c-.053-.067-.126-.12-.212-.153s-.181-.044-.274-.033c-.093-.011-.189 0-.275.033s-.16.086-.214.153a1.014 1.014 0 0 0-.125.557v2.363c-.013.196.03.391.125.569a.65.65 0 0 0 .219.141.732.732 0 0 0 .534 0 .64.64 0 0 0 .219-.141v-.011zm2.473-4.298h1.12l.842 3.544.861-3.544h1.089l.11 5.116h-.805l-.086-3.555-.831 3.555h-.646l-.861-3.568-.08 3.568h-.814l.101-5.116zm5.277 0h1.744c1.005 0 1.507.484 1.507 1.453 0 .928-.529 1.391-1.587 1.389h-.594v2.274h-1.076l.006-5.116zm1.49 2.186c.106.012.214.003.317-.025s.196-.075.275-.137a.831.831 0 0 0 .155-.578 1.583 1.583 0 0 0-.052-.464c-.015-.051-.042-.099-.079-.14s-.083-.077-.136-.103a1.116 1.116 0 0 0-.48-.082h-.418v1.529h.418zm3.313-2.186h1.156l1.186 5.116h-1.003l-.235-1.18h-1.031l-.241 1.18h-1.018l1.186-5.116zm.988 3.343-.403-2.147-.403 2.147h.805zm2.312-3.343h.753l1.442 2.918v-2.918h.893v5.116h-.717l-1.451-3.046v3.046h-.924l.002-5.116zm5.182 3.165-1.199-3.158h1.01l.732 2.029.687-2.029h.988l-1.184 3.158v1.95h-1.033v-1.95zm-25.504 4.187v.268h-.878v2.079h-.368v-2.079h-.883v-.268h2.129zm2.753 2.346h-.284a.125.125 0 0 1-.08-.022.116.116 0 0 1-.047-.054l-.254-.557h-1.219l-.254.557a.145.145 0 0 1-.039.063.131.131 0 0 1-.08.022h-.284l1.076-2.346h.375l1.089 2.337zm-1.783-.871h1.016l-.431-.955a1.768 1.768 0 0 1-.08-.221l-.041.125-.039.098-.426.953zm3.639.641c.067.003.135.003.202 0 .058-.005.116-.015.172-.028.053-.011.105-.025.155-.043.047-.017.095-.037.144-.058v-.528h-.431a.08.08 0 0 1-.058-.019c-.007-.005-.013-.012-.016-.019s-.005-.015-.005-.023v-.18h.835v.899a1.615 1.615 0 0 1-.454.191 1.87 1.87 0 0 1-.269.048c-.104.01-.209.015-.314.015a1.656 1.656 0 0 1-.543-.087 1.328 1.328 0 0 1-.431-.245 1.135 1.135 0 0 1-.278-.372 1.18 1.18 0 0 1-.099-.487 1.224 1.224 0 0 1 .097-.49c.062-.139.156-.266.278-.372.123-.106.269-.188.431-.243.184-.06.38-.089.577-.087.1 0 .2.007.299.02.088.012.173.032.256.059.075.024.147.055.215.093.066.037.129.078.187.123l-.103.145c-.008.013-.02.024-.035.032s-.032.012-.049.012a.14.14 0 0 1-.067-.019 1.112 1.112 0 0 1-.105-.056.924.924 0 0 0-.144-.063 1.309 1.309 0 0 0-.471-.072 1.297 1.297 0 0 0-.416.065.82.82 0 0 0-.516.478 1.098 1.098 0 0 0 0 .782.909.909 0 0 0 .529.481c.137.041.282.056.426.046zm3.431-.037h1.175v.268h-1.535v-2.346h.368l-.009 2.079zm2.399.267h-.368v-2.346h.368v2.346zm1.369-2.335a.171.171 0 0 1 .056.043l1.574 1.769a.589.589 0 0 1 0-.084v-1.748h.321v2.356h-.185a.182.182 0 0 1-.08-.013.215.215 0 0 1-.058-.045l-1.571-1.767v1.824h-.308v-2.346h.192c.021 0 .041.004.06.011zm4.661-.011v.258H46.88v.775h1.057v.249H46.88v.801h1.305v.258h-1.683v-2.341h1.683zM9.608 3.285 25.955 7.29v14.035L9.608 17.322V3.286zM8.56 2.089v15.915l18.441 4.52V6.611L8.56 2.089z"/>
      <path d="M18.443 29.911 0 25.388V9.475l18.443 4.522v15.915zM8.865 3.105 24.998 7.06l-6.861 5.922L2.001 9.025l6.863-5.92zM8.56 2.089 0 9.475l18.443 4.521 8.558-7.386L8.56 2.089zm10.921 26.927 7.52-6.491-7.52-1.845v8.335z"/>
    </symbol>
    <symbol id="icon-Logo-4" viewBox="0 0 59 32">
      <path d="M10.726 26.742a.996.996 0 0 1 .263.688c.009.163-.023.326-.094.476s-.178.285-.314.393a1.9 1.9 0 0 1-1.183.317h-2.08v-4.361h2.037a1.88 1.88 0 0 1 1.129.29c.132.099.236.224.304.366s.1.296.091.45a.943.943 0 0 1-.237.667 1.137 1.137 0 0 1-.62.341c.276.045.525.177.703.373zm-2.439-.658h.871a.891.891 0 0 0 .554-.145c.065-.053.116-.12.149-.193s.046-.153.038-.233c.006-.079-.007-.158-.039-.232s-.082-.14-.145-.194a.908.908 0 0 0-.57-.147h-.857v1.144zm1.509 1.672c.07-.055.125-.123.161-.2s.051-.16.045-.243c.005-.084-.011-.168-.047-.246s-.092-.147-.163-.202a.969.969 0 0 0-.592-.158h-.913v1.199h.925a.996.996 0 0 0 .584-.151zm5.095.861-1.133-1.704h-.426v1.704h-.975v-4.361h1.846c.465-.029.925.103 1.285.371.258.237.414.549.439.879s-.082.659-.302.925a1.55 1.55 0 0 1-.88.443l1.207 1.743h-1.06zm-1.559-2.299h.797c.554 0 .831-.22.831-.66.006-.09-.01-.18-.045-.264s-.089-.161-.159-.226a.928.928 0 0 0-.627-.177h-.807l.009 1.327zm6.888 1.421h-1.943l-.343.878h-1.022l1.784-4.312h1.105l1.777 4.312h-1.022l-.336-.878zm-.26-.66-.71-1.841-.71 1.841h1.42zm6.931 1.538h-.968l-2.17-2.965v2.965h-.965v-4.361h.965l2.17 2.982v-2.982h.968v4.361zm5.523-1.044c-.2.329-.505.597-.876.769a3.113 3.113 0 0 1-1.361.275h-1.723v-4.361h1.723a3.19 3.19 0 0 1 1.361.268c.37.168.676.433.876.761.199.355.303.747.303 1.144s-.104.789-.303 1.144zm-1.107-.104c.276-.29.428-.659.428-1.041s-.152-.751-.428-1.041a1.805 1.805 0 0 0-1.212-.371h-.672v2.823h.672c.442.025.878-.108 1.212-.371zM20.826 0s12.492 4.246 12.227 10.39v10.392S20.57 16.534 20.831 10.39L20.826 0zm23.356 18.349c2.359-1.462 5.088-2.367 7.937-2.633v-3.253c-3.282 1.139-6.067 3.204-7.937 5.886z"/>
      <path d="M42.764 19.329c1.931-3.5 5.279-6.202 9.354-7.548V2.408s-17.79 6.048-17.414 14.797V32s.793-.271 2.04-.778c0-.473 0-.95.057-1.429.368-4.062 2.513-7.826 5.963-10.464z"/>
      <path d="M41.073 24.825a13.96 13.96 0 0 1 .622-3.029c-2.148 2.279-3.449 5.106-3.72 8.085-.026.281-.04.562-.047.852a53.97 53.97 0 0 0 3.422-1.623 13.838 13.838 0 0 1-.277-4.284zm.707.053a13.23 13.23 0 0 0 .22 3.879c4.861-2.618 10.322-6.664 10.111-11.553v-.426c-3.473.35-6.722 1.716-9.248 3.89a13.392 13.392 0 0 0-1.084 4.21z"/>
    </symbol>
    <symbol id="icon-Logo-3" viewBox="0 0 59 32">
      <path d="M13.144 9.77h-.002c-1.862 0-3.371 1.361-3.371 3.04v.002c0 1.679 1.509 3.039 3.371 3.039h.002c1.862 0 3.371-1.361 3.371-3.039v-.002c0-1.679-1.509-3.04-3.371-3.04zm24.884-.972c-.005-2.332-1.035-4.567-2.863-6.215S30.858.005 28.272 0c-2.587.004-5.067.933-6.896 2.582s-2.859 3.885-2.865 6.217v12.858s19.515-1.96 19.517-12.856v-.002zM2.936 25.876c.005 1.622.721 3.177 1.994 4.325S7.927 31.995 9.726 32c1.799-.005 3.523-.651 4.795-1.798s1.989-2.701 1.994-4.323v-8.947S2.936 18.297 2.936 25.877zm6.79 1.604c-.352 0-.695-.094-.988-.27s-.52-.427-.655-.719-.17-.615-.101-.926c.069-.311.238-.597.487-.821s.565-.377.91-.439c.345-.062.702-.03 1.027.091s.603.327.798.59c.195.264.3.573.3.891.001.211-.044.42-.133.615s-.22.373-.385.522-.361.268-.578.349-.448.123-.682.123v-.006zm12.417-2.883v3.329h-.686v-3.329h.686zm1.326 1.422v.535h-1.514v-.535h1.514zm.16-1.422v.537h-1.674v-.537h1.674zm3.133 1.587v.158c0 .253-.034.48-.103.681s-.165.373-.29.515c-.125.14-.274.248-.448.323a1.42 1.42 0 0 1-.574.112c-.209 0-.4-.037-.574-.112a1.28 1.28 0 0 1-.448-.323 1.495 1.495 0 0 1-.295-.515 2.09 2.09 0 0 1-.103-.681v-.158c0-.255.034-.482.103-.681.069-.201.165-.373.29-.515.127-.142.276-.25.448-.325.174-.075.365-.112.574-.112.21 0 .402.037.574.112.174.075.323.183.448.325.127.142.224.313.293.515.07.2.105.427.105.681zm-.693.158v-.162c0-.177-.016-.332-.048-.467s-.079-.247-.142-.338a.623.623 0 0 0-.538-.277.614.614 0 0 0-.535.277c-.061.091-.107.204-.139.338s-.048.29-.048.467v.162c0 .175.016.331.048.466.032.134.079.248.142.341.063.091.139.161.229.208s.193.071.309.071.219-.024.309-.071a.614.614 0 0 0 .226-.208c.061-.093.107-.207.139-.341.032-.136.048-.291.048-.466zm2.92.713a.447.447 0 0 0-.027-.16.308.308 0 0 0-.096-.133c-.047-.041-.114-.081-.199-.121s-.196-.081-.331-.123a4.267 4.267 0 0 1-.43-.165 1.775 1.775 0 0 1-.357-.213.952.952 0 0 1-.242-.286.786.786 0 0 1-.087-.377.79.79 0 0 1 .091-.377.872.872 0 0 1 .256-.293c.11-.082.239-.145.389-.19.151-.044.316-.066.496-.066.245 0 .46.044.643.133s.325.21.425.364c.102.154.153.33.153.528h-.681a.513.513 0 0 0-.062-.256.421.421 0 0 0-.183-.176.648.648 0 0 0-.306-.064.7.7 0 0 0-.297.055.393.393 0 0 0-.178.144.351.351 0 0 0-.059.201c0 .056.014.107.041.153.029.046.072.088.128.128s.126.077.208.112c.082.035.177.069.286.103.181.055.341.117.478.185.139.069.255.145.348.231s.163.182.21.29a.915.915 0 0 1 .071.368c0 .145-.028.274-.085.389s-.138.211-.245.29c-.107.079-.234.139-.382.181s-.313.062-.496.062c-.165 0-.327-.021-.487-.064a1.486 1.486 0 0 1-.437-.199c-.129-.088-.233-.201-.311-.338s-.117-.299-.117-.487h.688c0 .104.016.191.048.263s.077.129.135.174a.579.579 0 0 0 .21.096c.082.02.172.03.27.03a.745.745 0 0 0 .293-.05.36.36 0 0 0 .228-.34zm2.641-2.458v3.329h-.684v-3.329h.684zm1.025 0v.537h-2.716v-.537h2.716zm2.624 2.794v.535h-1.772v-.535h1.772zm-1.548-2.794v3.329h-.686v-3.329h.686zm1.318 1.356v.521h-1.541v-.521h1.541zm.228-1.356v.537h-1.77v-.537h1.77zm.403 0h1.242c.255 0 .473.038.656.114.184.076.326.189.425.338s.149.333.149.551c0 .178-.031.332-.091.46a.848.848 0 0 1-.254.318 1.295 1.295 0 0 1-.382.201l-.217.114h-1.079l-.005-.535h.803c.12 0 .22-.021.3-.064s.139-.102.178-.178a.552.552 0 0 0 .062-.265c0-.107-.02-.199-.059-.277s-.1-.137-.181-.178-.182-.062-.304-.062h-.556v2.792h-.686v-3.329zm1.861 3.329-.759-1.484.725-.005.768 1.457v.032h-.734zm3.601-1.186h-.848v-.535h.848a.69.69 0 0 0 .32-.064c.082-.044.143-.105.181-.183s.057-.165.057-.263c0-.099-.019-.191-.057-.277s-.098-.154-.181-.206-.189-.078-.32-.078h-.611v2.792h-.686v-3.329h1.297c.261 0 .484.047.67.142.187.093.331.222.43.386s.149.353.149.565c0 .215-.05.401-.149.558s-.242.278-.43.364a1.602 1.602 0 0 1-.67.128zm3.956.651v.535h-1.772v-.535h1.772zm-1.548-2.794v3.329h-.686v-3.329h.686zm1.317 1.356v.521h-1.541v-.521h1.541zm.229-1.356v.537h-1.77v-.537h1.77zm1.937 0v3.329h-.684v-3.329h.684zm1.024 0v.537h-2.716v-.537h2.716zm2.625 2.794v.535H48.91v-.535h1.772zm-1.548-2.794v3.329h-.686v-3.329h.686zm1.317 1.356v.521H48.91v-.521h1.541zm.229-1.356v.537h-1.77v-.537h1.77zm.402 0h1.242c.255 0 .473.038.656.114.184.076.326.189.425.338s.149.333.149.551c0 .178-.031.332-.091.46a.848.848 0 0 1-.254.318 1.295 1.295 0 0 1-.382.201l-.217.114h-1.079l-.005-.535h.803c.12 0 .22-.021.3-.064s.139-.102.178-.178a.552.552 0 0 0 .062-.265c0-.107-.02-.199-.059-.277s-.1-.137-.181-.178a.669.669 0 0 0-.304-.062h-.556v2.792h-.686v-3.329zm1.861 3.329-.759-1.484.725-.005.768 1.457v.032h-.734zm2.872-.871a.447.447 0 0 0-.027-.16.308.308 0 0 0-.096-.133c-.047-.041-.114-.081-.199-.121s-.196-.081-.331-.123a4.267 4.267 0 0 1-.43-.165 1.775 1.775 0 0 1-.357-.213.952.952 0 0 1-.242-.286.786.786 0 0 1-.087-.377.79.79 0 0 1 .091-.377.872.872 0 0 1 .256-.293c.11-.082.239-.145.389-.19.151-.044.316-.066.496-.066.245 0 .46.044.643.133s.325.21.425.364c.102.154.153.33.153.528h-.681a.513.513 0 0 0-.062-.256.421.421 0 0 0-.183-.176.648.648 0 0 0-.306-.064.7.7 0 0 0-.297.055.393.393 0 0 0-.178.144.351.351 0 0 0-.059.201c0 .056.014.107.041.153.029.046.072.088.128.128s.126.077.208.112c.082.035.178.069.286.103.181.055.341.117.478.185.139.069.255.145.347.231s.163.182.211.29a.915.915 0 0 1 .071.368c0 .145-.028.274-.085.389s-.138.211-.245.29c-.107.079-.234.139-.382.181s-.313.062-.496.062c-.165 0-.327-.021-.487-.064a1.486 1.486 0 0 1-.437-.199c-.129-.088-.233-.201-.311-.338s-.117-.299-.117-.487h.688c0 .104.016.191.048.263s.077.129.135.174a.579.579 0 0 0 .21.096c.082.02.172.03.27.03a.742.742 0 0 0 .293-.05.36.36 0 0 0 .228-.34z"/>
    </symbol>
    <symbol id="icon-Logo-2" viewBox="0 0 59 32">
      <path d="M17.863 31.394c.013 0 .025.003.036.007s.022.011.03.019l.172.162a1.413 1.413 0 0 1-.485.307 1.897 1.897 0 0 1-.687.11 1.853 1.853 0 0 1-.646-.103 1.414 1.414 0 0 1-.487-.291 1.3 1.3 0 0 1-.315-.449 1.49 1.49 0 0 1-.11-.576 1.385 1.385 0 0 1 .118-.578c.075-.167.189-.32.334-.449.147-.127.323-.226.517-.293a2.07 2.07 0 0 1 .666-.103c.211-.004.422.028.618.094.171.063.327.151.463.26l-.144.173a.125.125 0 0 1-.037.031.098.098 0 0 1-.058.013.153.153 0 0 1-.063-.018l-.078-.046-.108-.059a1.267 1.267 0 0 0-.34-.103 1.559 1.559 0 0 0-.256-.018 1.425 1.425 0 0 0-.478.077 1.109 1.109 0 0 0-.375.217 1 1 0 0 0-.243.346 1.13 1.13 0 0 0-.088.457c-.003.158.027.315.088.464a.994.994 0 0 0 .597.558c.141.05.292.075.444.074.088.001.176-.004.263-.015a1.068 1.068 0 0 0 .569-.237.13.13 0 0 1 .082-.029zm4.977-.814c.003.195-.037.389-.116.573-.07.166-.181.318-.325.445s-.317.226-.509.292a2.14 2.14 0 0 1-1.31 0 1.514 1.514 0 0 1-.506-.293 1.307 1.307 0 0 1-.328-.449 1.473 1.473 0 0 1 0-1.147 1.36 1.36 0 0 1 .328-.451c.144-.123.317-.218.506-.282.421-.14.889-.14 1.31 0 .191.066.365.166.508.293a1.316 1.316 0 0 1 .441 1.02zm-.453 0a1.196 1.196 0 0 0-.082-.46.941.941 0 0 0-.231-.344 1.012 1.012 0 0 0-.364-.217 1.533 1.533 0 0 0-.952 0 1.026 1.026 0 0 0-.364.217.926.926 0 0 0-.233.344c-.11.3-.11.621 0 .92a.939.939 0 0 0 .233.344c.101.094.226.168.364.215.307.098.645.098.952 0 .139-.048.263-.121.364-.215a.967.967 0 0 0 .231-.344c.058-.148.085-.304.082-.46zm3.848.483.045.103c.017-.037.032-.07.05-.103a.833.833 0 0 1 .056-.101l1.101-1.71c.022-.029.041-.048.063-.053a.273.273 0 0 1 .09-.009h.325v2.781h-.386v-2.132a.769.769 0 0 1 0-.096l-1.107 1.734c-.014.026-.037.048-.065.063s-.061.023-.095.023h-.062c-.034 0-.067-.008-.095-.023s-.051-.037-.065-.064l-1.14-1.745v2.232h-.373v-2.776h.325a.3.3 0 0 1 .09.009c.027.011.048.03.06.053l1.125 1.712a.61.61 0 0 1 .056.099zm4.143-.139v1.042h-.431v-2.777h.961c.181-.003.362.017.536.061.14.034.269.093.379.173a.718.718 0 0 1 .215.272.814.814 0 0 1 .073.355.774.774 0 0 1-.313.633c-.11.084-.24.146-.381.184a1.81 1.81 0 0 1-.519.064l-.521-.007zm0-.298h.521c.113.001.226-.013.334-.042a.727.727 0 0 0 .241-.12.532.532 0 0 0 .198-.418c.005-.077-.01-.154-.043-.226s-.085-.137-.151-.19a.935.935 0 0 0-.579-.149h-.521v1.145zm5.791 1.344h-.34a.164.164 0 0 1-.095-.026.171.171 0 0 1-.056-.064l-.293-.672h-1.471l-.304.672a.162.162 0 0 1-.151.091h-.34l1.293-2.782h.448l1.31 2.782zm-2.133-1.033h1.215l-.513-1.132a1.783 1.783 0 0 1-.097-.261l-.05.145a1.317 1.317 0 0 1-.047.118l-.508 1.13zm3.995-1.736a.18.18 0 0 1 .065.05l1.885 2.097v-2.16h.386v2.782h-.215a.2.2 0 0 1-.088-.017.224.224 0 0 1-.069-.052l-1.883-2.095a.769.769 0 0 1 0 .096v2.068h-.386v-2.782h.228a.206.206 0 0 1 .078.013zm5.511 1.663v1.104h-.431v-1.104l-1.191-1.675h.386a.158.158 0 0 1 .093.024.248.248 0 0 1 .058.063l.745 1.081c.03.046.056.088.078.129s.039.079.054.118l.056-.12a.947.947 0 0 1 .073-.127l.735-1.088a.26.26 0 0 1 .056-.059.15.15 0 0 1 .093-.028h.39l-1.194 1.683zm-17.52-6.343c.187.02.377.037.569.052 2.907-1.111 5.366-2.93 7.07-5.228s2.577-4.975 2.511-7.696l-3.204-2.737c.651 2.896.347 5.89-.88 8.647s-3.327 5.167-6.066 6.962z"/>
      <path d="m24.878 24.393.086.015c2.927-1.789 5.158-4.286 6.406-7.17s1.454-6.021.592-9.006l-4.563-3.899c1.846 3.205 2.589 6.791 2.142 10.342s-2.063 6.921-4.663 9.718zm15.475-9.531c-.775 2.989-2.658 5.685-5.369 7.687a17.175 17.175 0 0 1-2.551 1.565c2.207-.554 4.236-1.534 5.93-2.865s3.008-2.975 3.84-4.808l-1.851-1.579z"/>
      <path d="m39.627 14.422-2.635-2.251c-.05 2.567-.904 5.075-2.473 7.264s-3.795 3.98-6.448 5.185h.013c.591 0 1.182-.03 1.769-.09 2.479-.865 4.669-2.24 6.375-4.004s2.874-3.861 3.4-6.104zM25.259 2.689 22.116 0c-2.81.928-5.227 2.559-6.934 4.679s-2.625 4.632-2.634 7.206c.011 2.844 1.131 5.604 3.184 7.843s4.921 3.829 8.151 4.518c2.883-3.001 4.571-6.709 4.818-10.586s-.958-7.72-3.442-10.971zM46.89 14.008c-.011-3.374-1.585-6.608-4.378-8.994s-6.577-3.731-10.526-3.74a16.975 16.975 0 0 0-5.337.849l19.246 16.443a10.98 10.98 0 0 0 .995-4.558z"/>
    </symbol>
    <symbol id="icon-Logo-1" viewBox="0 0 59 32">
      <path d="M27.942 1.806h-.084a9.985 9.985 0 0 0-.388-.014h-.28c-.244 0-.494.006-.741.019a.523.523 0 0 0-.056 0c-2.243.127-4.44.688-6.472 1.651l-.266.128v13.626l.623-.211a23.32 23.32 0 0 1 1.731-.513 21.155 21.155 0 0 1 4.982-.662v1.79a15.56 15.56 0 0 0-.655.019h-.051a19.948 19.948 0 0 0-3.833.588c-1.59.398-3.124.996-4.566 1.779V2.531a18.3 18.3 0 0 1 4.79-1.948 18.343 18.343 0 0 1 4.515-.582h.263c.314.008.621.022.909.044.759.053 1.511.173 2.25.358v1.762a13.941 13.941 0 0 0-2.18-.329l-.045-.004c-.152-.013-.304-.026-.446-.026zm3.102 1.801c.391.03.796.044 1.205.044a19.352 19.352 0 0 0 4.747-.609 19.57 19.57 0 0 0 4.565-1.781v17.164a18.313 18.313 0 0 1-4.792 1.948 18.486 18.486 0 0 1-4.515.581 13.778 13.778 0 0 1-3.425-.404V3.275c.265.061.537.117.814.164.455.077.934.133 1.401.167zm8.735.133-.623.21c-.573.192-1.15.365-1.731.518a21.147 21.147 0 0 1-5.173.664c-.406 0-.78-.011-1.141-.034l-.497-.033v14.017l.427.038c.395.034.803.052 1.214.052a16.573 16.573 0 0 0 4.074-.527 17.08 17.08 0 0 0 3.184-1.144l.266-.128V3.743zM19.095 25.977a.912.912 0 0 0-.693-.28 1.034 1.034 0 0 0-.4.075.91.91 0 0 0-.512.518 1.023 1.023 0 0 0-.072.387v2.335c-.006.165.026.328.092.479.055.12.135.226.233.313a.815.815 0 0 0 .321.166c.113.032.231.048.349.049a.972.972 0 0 0 .892-.61.951.951 0 0 0 .075-.372v-.261h-.61v.208a.528.528 0 0 1-.036.208.359.359 0 0 1-.089.131.365.365 0 0 1-.128.067.425.425 0 0 1-.128.022.312.312 0 0 1-.286-.125.548.548 0 0 1-.081-.313v-2.177a.738.738 0 0 1 .075-.349.311.311 0 0 1 .299-.141.33.33 0 0 1 .272.131c.068.09.104.2.101.313v.202h.604v-.238a1.093 1.093 0 0 0-.279-.737zm3.626-.026a1.051 1.051 0 0 0-1.38 0 .961.961 0 0 0-.237.327 1.099 1.099 0 0 0-.089.452v2.239a1.08 1.08 0 0 0 .089.459c.055.12.136.227.237.313a.94.94 0 0 0 .322.197 1.028 1.028 0 0 0 .728 0c.122-.044.233-.111.33-.197a.948.948 0 0 0 .23-.313c.063-.144.093-.301.089-.459V26.73a1.08 1.08 0 0 0-.089-.452 1.015 1.015 0 0 0-.23-.327zm-.285 3.018a.405.405 0 0 1-.121.324.445.445 0 0 1-.574 0 .397.397 0 0 1-.121-.324V26.73a.405.405 0 0 1 .121-.324.445.445 0 0 1 .574 0 .397.397 0 0 1 .121.324v2.239zm5.047 1V25.73h-.587l-.771 2.244h-.011l-.777-2.244h-.581v4.239h.606V27.39h.011l.593 1.823h.302l.598-1.823h.011v2.579h.606zm3.441-3.942a.84.84 0 0 0-.343-.232 1.363 1.363 0 0 0-.439-.066h-.9v4.239h.604v-1.656h.311c.189.009.376-.031.545-.116a.882.882 0 0 0 .332-.324 1.02 1.02 0 0 0 .139-.369c.024-.16.035-.321.033-.482a2.421 2.421 0 0 0-.059-.606.898.898 0 0 0-.223-.39zm-.312 1.293a.547.547 0 0 1-.056.221.346.346 0 0 1-.156.149.621.621 0 0 1-.285.053h-.276v-1.441h.311a.578.578 0 0 1 .272.053.349.349 0 0 1 .142.157.62.62 0 0 1 .053.236v.282c0 .099.006.2 0 .291h-.006zm3.173-1.59h-.495l-.934 4.239h.604l.178-.911h.824l.178.911h.604l-.957-4.239zm-.557 2.751.297-1.537h.011l.296 1.537h-.604zm4.46-.197h-.011l-.912-2.554h-.581v4.239h.604V27.42h.013l.923 2.549h.568V25.73h-.604v2.554zm3.691-2.554-.486 1.685h-.012l-.486-1.685h-.64l.83 2.447v1.792h.604v-1.792l.83-2.447h-.64zm-23.968 5.436h.291v.817h.198v-.817h.29v-.167h-.778v.167zm2.447-.167-.381.984h.21l.081-.224h.392l.084.224h.215l-.391-.984h-.21zm-.031.594.134-.365.134.365h-.268zm2.45.027h.227v.127a.382.382 0 0 1-.234.083.244.244 0 0 1-.209-.093.411.411 0 0 1-.073-.257c0-.219.095-.329.283-.329.05-.005.099.008.14.037s.07.071.083.12l.195-.038c-.042-.192-.181-.29-.417-.29a.495.495 0 0 0-.344.127.494.494 0 0 0-.141.379.532.532 0 0 0 .126.369.477.477 0 0 0 .374.144.59.59 0 0 0 .417-.157v-.388h-.427v.166zm2.471-.621h-.199v.984h.69v-.167h-.49v-.817zm2.089 0h-.199v.984h.199v-.984zm2.043.657-.403-.657h-.193v.984h.185v-.643l.395.643h.198v-.984h-.182v.657zm1.846-.106h.49v-.167h-.49v-.216h.528V31h-.727v.984h.747v-.167h-.548v-.266zm4.477-.163h-.388v-.388h-.198v.984h.198v-.43h.388v.43h.198v-.984h-.198v.388zm1.857.163h.492v-.167h-.492v-.216h.529V31h-.727v.984h.746v-.167h-.548v-.266zm2.519 0c.171-.027.258-.117.258-.274a.236.236 0 0 0-.096-.219.553.553 0 0 0-.288-.058h-.417v.984h.198v-.412h.039a.261.261 0 0 1 .123.022.21.21 0 0 1 .07.072l.215.313h.237l-.12-.192a.685.685 0 0 0-.218-.236zm-.199-.136h-.146v-.247h.156a.507.507 0 0 1 .201.023.135.135 0 0 1 .033.046.133.133 0 0 1-.005.111.128.128 0 0 1-.037.043.57.57 0 0 1-.201.024zm2.099.136h.49v-.167h-.49v-.216h.529V31h-.729v.984h.747v-.167h-.548v-.266z"/>
    </symbol>
    <symbol id="icon-Logo" viewBox="0 0 59 32">
      <path d="m19.84 0 4.775 4.549-8.862-.005v22.069h23.165v-8.438l4.769 4.544V.001H19.841zm18.867 17.641L25.169 4.744h13.538v12.897zm-4.203 5.744H19.418V8.542h1.066V22.38h14.02v1.005zm-12.078 7.316-.562-1.156H21.4l.815 1.53v.892h.421v-.892l.815-1.53h-.462l-.562 1.156zm2.072-1.156h.1l.915 2.422h-.439l-.196-.567h-.938l-.196.567h-.437l.912-2.422h.279zm-.443 1.523h.709l-.355-1.027-.354 1.027zm2.926-.401-.053-.068a1.266 1.266 0 0 1-.145-.238.647.647 0 0 1 .026-.566.527.527 0 0 1 .221-.21.71.71 0 0 1 .334-.075.64.64 0 0 1 .318.075.518.518 0 0 1 .279.461c0 .076-.014.146-.042.21s-.066.121-.115.173a1.188 1.188 0 0 1-.17.148l-.168.122.48.566a.966.966 0 0 0 .105-.452h.346c0 .118-.012.229-.035.334a1.039 1.039 0 0 1-.177.4l.355.419h-.464l-.141-.166a.952.952 0 0 1-.248.136 1.112 1.112 0 0 1-.376.063c-.161 0-.3-.029-.418-.088s-.208-.14-.273-.243a.665.665 0 0 1-.095-.354c0-.099.02-.185.061-.259a.817.817 0 0 1 .168-.21c.066-.059.14-.119.224-.178zm.199.244-.05.036a.61.61 0 0 0-.131.138.394.394 0 0 0-.023.409.344.344 0 0 0 .135.138c.06.033.133.05.218.05a.62.62 0 0 0 .391-.137l-.539-.634zm.096-.443.149-.1a.552.552 0 0 0 .15-.136.3.3 0 0 0 .045-.17.241.241 0 0 0-.255-.233.243.243 0 0 0-.231.143.338.338 0 0 0-.028.141c0 .05.013.101.038.155a.994.994 0 0 0 .133.2zm4.237.71h-.416a.77.77 0 0 1-.076.268.383.383 0 0 1-.168.165.625.625 0 0 1-.288.057c-.098 0-.181-.019-.251-.058s-.127-.094-.173-.165a.822.822 0 0 1-.1-.254 1.622 1.622 0 0 1-.032-.333v-.205c0-.129.012-.243.035-.343.024-.101.06-.186.108-.255s.107-.121.178-.156a.558.558 0 0 1 .25-.053c.116 0 .211.02.283.06a.378.378 0 0 1 .163.17.762.762 0 0 1 .073.268h.416a1.056 1.056 0 0 0-.136-.431c-.073-.125-.176-.223-.309-.294s-.296-.107-.489-.107c-.152 0-.289.027-.411.08a.862.862 0 0 0-.311.231c-.087.1-.153.22-.2.361a1.546 1.546 0 0 0-.068.472v.201c0 .174.022.332.067.472.045.141.111.261.196.361a.887.887 0 0 0 .308.23.99.99 0 0 0 .404.08c.195 0 .361-.035.497-.107s.242-.168.318-.291a.962.962 0 0 0 .133-.424zm2.31-.356v-.133c0-.183-.024-.346-.073-.491a1.066 1.066 0 0 0-.205-.371.885.885 0 0 0-.318-.235 1.009 1.009 0 0 0-.409-.081 1 1 0 0 0-.407.081.88.88 0 0 0-.318.235 1.068 1.068 0 0 0-.206.371 1.522 1.522 0 0 0-.073.491v.133c0 .183.024.347.073.492.05.145.12.269.21.371s.196.18.318.235c.123.053.259.08.408.08.15 0 .286-.027.409-.08a.881.881 0 0 0 .316-.235c.089-.102.157-.226.205-.371s.072-.309.072-.492zm-.417-.136v.136c0 .135-.013.255-.04.359a.813.813 0 0 1-.113.265.493.493 0 0 1-.431.214.556.556 0 0 1-.246-.053.527.527 0 0 1-.186-.161c-.051-.072-.09-.16-.116-.265s-.04-.224-.04-.359v-.136c0-.135.013-.254.04-.358a.784.784 0 0 1 .115-.261.503.503 0 0 1 .431-.215c.092 0 .175.018.248.055a.48.48 0 0 1 .185.16c.051.07.089.157.115.261.027.103.04.222.04.358z"/>
    </symbol>
    <symbol id="icon-linkedin" viewBox="0 0 32 32">
      <path d="M31.992 32v-.001H32V20.263c0-5.741-1.236-10.164-7.948-10.164-3.227 0-5.392 1.771-6.276 3.449h-.093v-2.913h-6.364v21.364h6.627V21.42c0-2.785.528-5.479 3.977-5.479 3.399 0 3.449 3.179 3.449 5.657v10.401h6.62zM.528 10.636h6.635V32H.528V10.636zM3.843 0C1.722 0 0 1.721 0 3.843s1.721 3.879 3.843 3.879c2.121 0 3.843-1.757 3.843-3.879A3.846 3.846 0 0 0 3.843 0z"/>
    </symbol>
    <symbol id="icon-facebook" viewBox="0 0 32 32">
      <path d="M21.329 5.313h2.921V.225C23.746.156 22.013 0 19.994 0c-4.212 0-7.097 2.649-7.097 7.519V12H8.249v5.688h4.648V32h5.699V17.689h4.46l.708-5.688h-5.169V8.082c.001-1.644.444-2.769 2.735-2.769z"/>
    </symbol>
    <symbol id="icon-twitter" viewBox="0 0 32 32">
      <path d="M32 6.078c-1.19.522-2.458.868-3.78 1.036a6.523 6.523 0 0 0 2.886-3.626 13.11 13.11 0 0 1-4.16 1.588A6.574 6.574 0 0 0 22.154 3c-3.632 0-6.556 2.948-6.556 6.562 0 .52.044 1.02.152 1.496-5.454-.266-10.28-2.88-13.522-6.862a6.605 6.605 0 0 0-.898 3.316 6.57 6.57 0 0 0 2.914 5.452 6.479 6.479 0 0 1-2.964-.808v.072c0 3.188 2.274 5.836 5.256 6.446a6.548 6.548 0 0 1-1.72.216 5.8 5.8 0 0 1-1.242-.112c.85 2.598 3.262 4.508 6.13 4.57a13.182 13.182 0 0 1-8.134 2.798c-.538 0-1.054-.024-1.57-.09A18.469 18.469 0 0 0 10.064 29c12.072 0 18.672-10 18.672-18.668 0-.29-.01-.57-.024-.848A13.087 13.087 0 0 0 32 6.078z"/>
    </symbol>
    <symbol id="icon-instagram" viewBox="0 0 32 32">
      <path d="M31.916 9.408c-.075-1.7-.35-2.869-.744-3.882a7.803 7.803 0 0 0-1.85-2.838A7.867 7.867 0 0 0 26.49.844C25.471.45 24.308.175 22.608.1 20.895.019 20.351 0 16.007 0s-4.888.019-6.595.094c-1.7.075-2.869.35-3.882.744a7.803 7.803 0 0 0-2.838 1.85A7.867 7.867 0 0 0 .848 5.52C.454 6.539.179 7.702.104 9.402c-.081 1.713-.1 2.257-.1 6.601s.019 4.888.094 6.595c.075 1.7.35 2.869.744 3.882a7.895 7.895 0 0 0 1.85 2.838 7.867 7.867 0 0 0 2.832 1.844c1.019.394 2.182.669 3.882.744 1.706.075 2.25.094 6.595.094s4.888-.018 6.595-.094c1.7-.075 2.869-.35 3.882-.744a8.181 8.181 0 0 0 4.682-4.682c.394-1.019.669-2.182.744-3.882.075-1.707.094-2.251.094-6.595s-.006-4.888-.081-6.595zm-2.882 13.065c-.069 1.563-.331 2.407-.55 2.969a5.307 5.307 0 0 1-3.038 3.038c-.563.219-1.413.481-2.969.55-1.688.075-2.194.094-6.464.094s-4.782-.018-6.464-.094c-1.563-.069-2.407-.331-2.969-.55a4.926 4.926 0 0 1-1.838-1.194 4.974 4.974 0 0 1-1.194-1.838c-.219-.563-.481-1.413-.55-2.969-.075-1.688-.094-2.194-.094-6.464s.019-4.782.094-6.464c.069-1.563.331-2.407.55-2.969a4.868 4.868 0 0 1 1.2-1.838A4.974 4.974 0 0 1 6.586 3.55c.563-.219 1.413-.481 2.969-.55 1.688-.075 2.194-.094 6.464-.094 4.276 0 4.782.019 6.464.094 1.563.069 2.407.331 2.969.55a4.914 4.914 0 0 1 1.838 1.194 4.974 4.974 0 0 1 1.194 1.838c.219.563.481 1.413.55 2.969.075 1.688.094 2.194.094 6.464s-.019 4.77-.094 6.457z"/>
      <path d="M16.006 7.783c-4.538 0-8.22 3.682-8.22 8.22s3.682 8.22 8.22 8.22 8.22-3.682 8.22-8.22-3.682-8.22-8.22-8.22zm0 13.553a5.333 5.333 0 0 1 0-10.664 5.333 5.333 0 0 1 0 10.664zM26.471 7.458a1.919 1.919 0 1 1-3.838 0 1.919 1.919 0 0 1 3.838 0z"/>
    </symbol>
    <symbol id="icon-check" viewBox="0 0 32 32">
      <path d="M27.026 4.016a2.936 2.936 0 0 1 4.092.031 2.967 2.967 0 0 1 .108 4.112L15.563 27.853a2.923 2.923 0 0 1-2.103.945 2.926 2.926 0 0 1-2.136-.866L.937 17.489a2.966 2.966 0 0 1-.722-3.274 2.947 2.947 0 0 1 2.782-1.851 2.926 2.926 0 0 1 2.102.942l8.22 8.26L26.952 4.102c.025-.03.051-.059.078-.087h-.004z"/>
    </symbol>
    <symbol id="icon-send-footer" viewBox="0 0 32 32">
      <path d="m32 2.667-32 15 10.227 3.156L26 8.5 14.002 21.988l.01.003-.012-.003v7.345l5.735-5.576L27 25.999l5-23.333z"/>
    </symbol>
    <symbol id="icon-email-modal" viewBox="0 0 24 32">
      <path d="M20 8H4c-1.1 0-1.99.9-1.99 2L2 22c0 1.1.9 2 2 2h16c1.1 0 2-.9 2-2V10c0-1.1-.9-2-2-2zm-.4 4.25-7.07 4.42c-.32.2-.74.2-1.06 0L4.4 12.25a.85.85 0 1 1 .9-1.44L12 15l6.7-4.19a.85.85 0 1 1 .9 1.44z"/>
    </symbol>
    <symbol id="icon-phone-modal" viewBox="0 0 24 32">
      <path d="m18.968 19.154-2.451-.28a1.92 1.92 0 0 0-1.582.55l-1.775 1.775a14.514 14.514 0 0 1-6.359-6.359l1.785-1.785c.415-.415.618-.994.55-1.582l-.28-2.432a1.931 1.931 0 0 0-1.92-1.708H5.267c-1.09 0-1.997.907-1.93 1.997.511 8.24 7.102 14.821 15.332 15.332 1.09.068 1.997-.839 1.997-1.93v-1.669a1.913 1.913 0 0 0-1.698-1.911z"/>
    </symbol>
    <symbol id="icon-name-modal" viewBox="0 0 32 32">
      <path d="M16 16c2.947 0 5.333-2.387 5.333-5.333S18.946 5.334 16 5.334c-2.947 0-5.333 2.387-5.333 5.333S13.054 16 16 16zm0 2.667c-3.56 0-10.667 1.787-10.667 5.333v1.333c0 .733.6 1.333 1.333 1.333h18.667c.733 0 1.333-.6 1.333-1.333V24c0-3.547-7.107-5.333-10.667-5.333z"/>
    </symbol>
  </defs>
</svg>
